# xmcd CD database file
#
# Track frame offsets:
#	150
#	18671
#	45055
#	62230
#	82127
#	100466
#	120947
#	143342
#	161093
#	178866
#	193594
#	215428
#	236246
#
# Disc length: 3337 seconds
#
# Revision: 0
# Processed by: cddbd v1.5.2PL0 Copyright (c) Steve Scherf et al.
# Submitted via: CDex 1.51
#
DISCID=b10d070d
DTITLE=Jackie Greene - Giving Up The Ghost
DYEAR=2008
DGENRE=Blues
TTITLE0=Shaken
TTITLE1=Animal
TTITLE2=I Don't Live In A Dream
TTITLE3=Like A Ball And Chain
TTITLE4=Uphill Mountain
TTITLE5=Don't Let The Devil Take Your Mind
TTITLE6=Prayer For Spanish Harlem
TTITLE7=Downhearted
TTITLE8=Follow You
TTITLE9=Another Love Gone Bad
TTITLE10=When You Return
TTITLE11=Ghosts Of Promised Lands
TTITLE12=Don't Go (Bonus Track)
EXTD=YEAR: 2008
EXTT0=
EXTT1=
EXTT2=
EXTT3=
EXTT4=
EXTT5=
EXTT6=
EXTT7=
EXTT8=
EXTT9=
EXTT10=
EXTT11=
EXTT12=
PLAYORDER=
